<mxfile host="app.diagrams.net" agent="Mozilla/5.0 (Macintosh; Intel Mac OS X 10.15; rv:133.0) Gecko/20100101 Firefox/133.0" version="25.0.3">
  <diagram name="Page-1" id="cF0Ei5GIZtM5yR_saLvY">
    <mxGraphModel dx="1250" dy="853" grid="1" gridSize="10" guides="1" tooltips="1" connect="1" arrows="1" fold="1" page="1" pageScale="1" pageWidth="850" pageHeight="1100" math="0" shadow="0">
      <root>
        <mxCell id="0" />
        <mxCell id="1" parent="0" />
        <mxCell id="-HOPGf1j6_DcTNOlF0FS-5" value="" style="rounded=0;whiteSpace=wrap;html=1;fillColor=none;strokeWidth=3;" vertex="1" parent="1">
          <mxGeometry x="40" y="40" width="800" height="400" as="geometry" />
        </mxCell>
        <mxCell id="-HOPGf1j6_DcTNOlF0FS-8" value="" style="endArrow=none;html=1;rounded=0;exitX=0;exitY=0.098;exitDx=0;exitDy=0;exitPerimeter=0;strokeWidth=2;" edge="1" parent="1">
          <mxGeometry width="50" height="50" relative="1" as="geometry">
            <mxPoint x="40" y="120.00000000000004" as="sourcePoint" />
            <mxPoint x="840" y="120.8" as="targetPoint" />
          </mxGeometry>
        </mxCell>
        <mxCell id="-HOPGf1j6_DcTNOlF0FS-9" value="" style="endArrow=none;html=1;rounded=0;exitX=0;exitY=0.098;exitDx=0;exitDy=0;exitPerimeter=0;strokeWidth=2;" edge="1" parent="1">
          <mxGeometry width="50" height="50" relative="1" as="geometry">
            <mxPoint x="40" y="200" as="sourcePoint" />
            <mxPoint x="840" y="201" as="targetPoint" />
          </mxGeometry>
        </mxCell>
        <mxCell id="-HOPGf1j6_DcTNOlF0FS-10" value="" style="endArrow=none;html=1;rounded=0;exitX=0;exitY=0.098;exitDx=0;exitDy=0;exitPerimeter=0;strokeWidth=2;" edge="1" parent="1">
          <mxGeometry width="50" height="50" relative="1" as="geometry">
            <mxPoint x="40" y="280" as="sourcePoint" />
            <mxPoint x="840" y="281" as="targetPoint" />
          </mxGeometry>
        </mxCell>
        <mxCell id="-HOPGf1j6_DcTNOlF0FS-11" value="" style="endArrow=none;html=1;rounded=0;exitX=0;exitY=0.098;exitDx=0;exitDy=0;exitPerimeter=0;strokeWidth=2;" edge="1" parent="1">
          <mxGeometry width="50" height="50" relative="1" as="geometry">
            <mxPoint x="40" y="360" as="sourcePoint" />
            <mxPoint x="840" y="361" as="targetPoint" />
          </mxGeometry>
        </mxCell>
        <mxCell id="-HOPGf1j6_DcTNOlF0FS-12" value="" style="endArrow=none;html=1;rounded=0;strokeWidth=2;" edge="1" parent="1">
          <mxGeometry width="50" height="50" relative="1" as="geometry">
            <mxPoint x="80" y="440" as="sourcePoint" />
            <mxPoint x="80" y="40" as="targetPoint" />
          </mxGeometry>
        </mxCell>
        <mxCell id="-HOPGf1j6_DcTNOlF0FS-13" value="&lt;p&gt;&lt;font style=&quot;font-size: 15px;&quot; face=&quot;EB Garamond&quot;&gt;Queue 1&lt;/font&gt;&lt;/p&gt;" style="text;html=1;align=center;verticalAlign=middle;whiteSpace=wrap;rounded=0;rotation=-90;" vertex="1" parent="1">
          <mxGeometry x="25" y="65" width="70" height="30" as="geometry" />
        </mxCell>
        <mxCell id="-HOPGf1j6_DcTNOlF0FS-14" value="&lt;p&gt;&lt;font style=&quot;font-size: 15px;&quot; face=&quot;EB Garamond&quot;&gt;Queue 2&lt;br&gt;&lt;/font&gt;&lt;/p&gt;" style="text;html=1;align=center;verticalAlign=middle;whiteSpace=wrap;rounded=0;rotation=-90;" vertex="1" parent="1">
          <mxGeometry x="25" y="145" width="70" height="30" as="geometry" />
        </mxCell>
        <mxCell id="-HOPGf1j6_DcTNOlF0FS-15" value="&lt;p&gt;&lt;font style=&quot;font-size: 15px;&quot; face=&quot;EB Garamond&quot;&gt;Queue 3&lt;br&gt;&lt;/font&gt;&lt;/p&gt;" style="text;html=1;align=center;verticalAlign=middle;whiteSpace=wrap;rounded=0;rotation=-90;" vertex="1" parent="1">
          <mxGeometry x="25" y="225" width="70" height="30" as="geometry" />
        </mxCell>
        <mxCell id="-HOPGf1j6_DcTNOlF0FS-16" value="&lt;p&gt;&lt;font style=&quot;font-size: 15px;&quot; face=&quot;EB Garamond&quot;&gt;Queue 4&lt;br&gt;&lt;/font&gt;&lt;/p&gt;" style="text;html=1;align=center;verticalAlign=middle;whiteSpace=wrap;rounded=0;rotation=-90;" vertex="1" parent="1">
          <mxGeometry x="25" y="305" width="70" height="30" as="geometry" />
        </mxCell>
        <mxCell id="-HOPGf1j6_DcTNOlF0FS-17" value="&lt;p&gt;&lt;font style=&quot;font-size: 15px;&quot; face=&quot;EB Garamond&quot;&gt;Queue 5&lt;br&gt;&lt;/font&gt;&lt;/p&gt;" style="text;html=1;align=center;verticalAlign=middle;whiteSpace=wrap;rounded=0;rotation=-90;" vertex="1" parent="1">
          <mxGeometry x="25" y="385" width="70" height="30" as="geometry" />
        </mxCell>
        <mxCell id="-HOPGf1j6_DcTNOlF0FS-18" value="" style="endArrow=classic;html=1;rounded=0;strokeWidth=2;fontFamily=EB Garamond;" edge="1" parent="1">
          <mxGeometry width="50" height="50" relative="1" as="geometry">
            <mxPoint x="60" y="20" as="sourcePoint" />
            <mxPoint x="820" y="20" as="targetPoint" />
          </mxGeometry>
        </mxCell>
        <mxCell id="-HOPGf1j6_DcTNOlF0FS-24" value="&lt;font style=&quot;font-size: 20px;&quot; face=&quot;EB Garamond&quot;&gt;Time&lt;/font&gt;" style="edgeLabel;html=1;align=center;verticalAlign=middle;resizable=0;points=[];" vertex="1" connectable="0" parent="-HOPGf1j6_DcTNOlF0FS-18">
          <mxGeometry x="-0.0015" y="1" relative="1" as="geometry">
            <mxPoint as="offset" />
          </mxGeometry>
        </mxCell>
        <mxCell id="-HOPGf1j6_DcTNOlF0FS-25" value="" style="endArrow=classic;html=1;rounded=0;strokeWidth=2;" edge="1" parent="1">
          <mxGeometry width="50" height="50" relative="1" as="geometry">
            <mxPoint x="20" y="60" as="sourcePoint" />
            <mxPoint x="20" y="420" as="targetPoint" />
          </mxGeometry>
        </mxCell>
        <mxCell id="-HOPGf1j6_DcTNOlF0FS-26" value="&lt;font style=&quot;font-size: 20px;&quot; face=&quot;EB Garamond&quot;&gt;Priority&lt;/font&gt;" style="edgeLabel;html=1;align=center;verticalAlign=middle;resizable=0;points=[];rotation=-90;" vertex="1" connectable="0" parent="-HOPGf1j6_DcTNOlF0FS-25">
          <mxGeometry x="0.0028" y="1" relative="1" as="geometry">
            <mxPoint as="offset" />
          </mxGeometry>
        </mxCell>
      </root>
    </mxGraphModel>
  </diagram>
</mxfile>
